<svg width="472" height="32" viewBox="0 0 472 32" fill="none" xmlns="http://www.w3.org/2000/svg">
<g clip-path="url(#clip0_7796_10423)">
<path d="M29.0414 0H2.60938C1.16456 0 0 1.18699 0 2.64265V29.3622C0 30.8179 1.16939 32 2.60938 32H29.0414C30.4814 32 31.6508 30.8179 31.6508 29.3622V2.64265C31.6508 1.18699 30.4814 0.00488475 29.0414 0.00488475V0ZM26.3451 25.1565H19.3529C18.9035 25.1565 18.4783 24.9415 18.2077 24.5752L12.2206 16.5788C12.124 16.4518 11.9935 16.2418 11.9935 16.0366C11.9935 15.8315 12.1481 15.5872 12.2448 15.4651L18.2077 7.41505C18.4783 7.05358 18.9035 6.83865 19.3529 6.83865H26.3451C26.9394 6.83865 27.2729 7.53229 26.9153 8.01099L20.9524 16.0366L26.9153 23.9744C27.2777 24.4579 26.9394 25.1565 26.3451 25.1565Z" fill="#FCFCFF"/>
<path d="M8.78481 6.84351C6.46053 6.84351 4.58081 8.74856 4.58081 11.0932C4.58081 13.4379 6.46536 15.343 8.78481 15.343C11.1043 15.343 12.9888 13.4379 12.9888 11.0932C12.9888 8.74856 11.1043 6.84351 8.78481 6.84351Z" fill="#4EAC78"/>
<path d="M8.78481 25.1564C6.46053 25.1564 4.58081 23.2563 4.58081 20.9067C4.58081 18.5572 6.46536 16.657 8.78481 16.657C11.1043 16.657 12.9888 18.5572 12.9888 20.9067C12.9888 23.2563 11.1043 25.1564 8.78481 25.1564Z" fill="#C8463A"/>
<path d="M87.8733 9.02219C87.8733 7.90358 88.8107 6.94128 89.9221 6.94128C91.0335 6.94128 92 7.90358 92 9.02219C92 10.1408 91.0625 11.0738 89.9221 11.0738C88.7817 11.0738 87.8733 10.1408 87.8733 9.02219ZM88.4483 12.1826H91.4201C91.5264 12.1826 91.6134 12.2705 91.6134 12.3731V24.9856C91.6134 25.093 91.5264 25.1761 91.4201 25.1761H88.4483C88.342 25.1761 88.255 25.0881 88.255 24.9856V12.3731C88.255 12.2608 88.342 12.1826 88.4483 12.1826Z" fill="#FCFCFF"/>
<path d="M80.7507 21.3659C80.7507 24.2332 78.2815 25.6156 75.4692 25.6156C72.6568 25.6156 71.0091 24.5605 70.033 22.6261C69.9846 22.5333 70.0185 22.4161 70.1103 22.3672L72.7003 20.8969C72.8018 20.8383 72.9274 20.8823 72.9709 20.9897C73.3768 21.952 74.237 22.5138 75.4692 22.5138C76.7014 22.5138 77.2812 22.1425 77.2812 21.3707C77.2812 19.4315 70.4679 20.4964 70.5017 15.8217C70.521 13.052 72.7873 11.6745 75.4933 11.6012C77.4359 11.5475 79.3398 12.5196 80.3835 14.239C80.4415 14.3318 80.4077 14.4588 80.311 14.5125L77.7693 15.9145C77.6775 15.9633 77.5615 15.934 77.5084 15.8412C77.0976 15.0938 76.397 14.6591 75.4933 14.6591C74.5897 14.6591 73.9712 15.0303 73.9712 15.7484C73.9712 17.7023 80.7507 16.4811 80.7507 21.3659Z" fill="#FCFCFF"/>
<path d="M48.8775 16.0659C48.8437 16.0268 48.8437 15.9682 48.8775 15.9243L55.7634 7.26848C55.8987 7.09752 55.7827 6.83374 55.5653 6.83374H51.6463C51.4917 6.83374 51.3419 6.90701 51.2453 7.03402L44.4319 15.8021C44.3594 15.895 44.3159 16.0171 44.3159 16.1343V16.188C44.3159 16.3102 44.3546 16.4274 44.4319 16.5202L51.2453 24.9611C51.3419 25.0881 51.4917 25.1613 51.6463 25.1613H55.5653C55.7875 25.1613 55.9035 24.9024 55.7634 24.7266L48.8775 16.0659Z" fill="#FCFCFF"/>
<path d="M40.2569 6.83862H43.7699C43.8955 6.83862 43.997 6.92166 43.997 7.01936V24.9757C43.997 25.0783 43.8955 25.1564 43.7699 25.1564H40.2569C40.1313 25.1564 40.0298 25.0734 40.0298 24.9757V7.02424C40.0298 6.92166 40.1313 6.84351 40.2569 6.84351V6.83862Z" fill="#FCFCFF"/>
<path d="M61.876 11.7234C58.0683 11.7234 54.9854 14.8106 54.9854 18.6158C54.9854 22.421 58.0683 25.5082 61.876 25.5082C65.6838 25.5082 68.7667 22.4259 68.7667 18.6158C68.7667 14.8057 65.6838 11.7234 61.876 11.7234ZM61.876 22.0156C59.9963 22.0156 58.479 20.4964 58.479 18.6158C58.479 16.7351 60.0012 15.216 61.876 15.216C63.7509 15.216 65.2731 16.7351 65.2731 18.6158C65.2731 20.4964 63.7509 22.0156 61.876 22.0156Z" fill="#FCFCFF"/>
<path d="M82.7416 6.97546H85.7134C85.8197 6.97546 85.9067 7.06339 85.9067 7.16597V24.9855C85.9067 25.093 85.8197 25.176 85.7134 25.176H82.7416C82.6353 25.176 82.5483 25.0881 82.5483 24.9855V7.17085C82.5483 7.06339 82.6353 6.98035 82.7416 6.98035V6.97546Z" fill="#FCFCFF"/>
</g>
<path d="M459.411 18.708C459.411 15.068 462.037 12.13 465.703 12.13C469.473 12.13 471.813 15.068 471.813 18.916V19.488H461.881C462.063 21.62 463.623 23.388 466.145 23.388C467.471 23.388 468.927 22.868 469.863 21.906L470.955 23.44C469.707 24.662 467.939 25.312 465.911 25.312C462.167 25.312 459.411 22.66 459.411 18.708ZM465.703 14.054C463.181 14.054 461.985 16.082 461.855 17.798H469.525C469.473 16.134 468.355 14.054 465.703 14.054Z" fill="#FCFCFF"/>
<path d="M456.943 25H454.603V7.65796H456.943V25Z" fill="#FCFCFF"/>
<path d="M441.404 18.708C441.404 14.938 444.004 12.13 447.8 12.13C450.166 12.13 451.596 13.118 452.506 14.34L450.946 15.77C450.192 14.704 449.178 14.21 447.904 14.21C445.434 14.21 443.848 16.108 443.848 18.708C443.848 21.308 445.434 23.232 447.904 23.232C449.178 23.232 450.192 22.712 450.946 21.672L452.506 23.102C451.596 24.324 450.166 25.312 447.8 25.312C444.004 25.312 441.404 22.478 441.404 18.708Z" fill="#FCFCFF"/>
<path d="M429.116 29.914L429.48 27.808C429.766 27.938 430.208 28.016 430.52 28.016C431.378 28.016 431.95 27.73 432.34 26.794L433.068 25.13L427.894 12.442H430.39L434.316 22.296L438.242 12.442H440.764L434.576 27.392C433.77 29.368 432.392 30.07 430.572 30.096C430.182 30.096 429.48 30.018 429.116 29.914Z" fill="#FCFCFF"/>
<path d="M416.542 18.708C416.542 14.938 419.142 12.13 422.938 12.13C425.304 12.13 426.734 13.118 427.644 14.34L426.084 15.77C425.33 14.704 424.316 14.21 423.042 14.21C420.572 14.21 418.986 16.108 418.986 18.708C418.986 21.308 420.572 23.232 423.042 23.232C424.316 23.232 425.33 22.712 426.084 21.672L427.644 23.102C426.734 24.324 425.304 25.312 422.938 25.312C419.142 25.312 416.542 22.478 416.542 18.708Z" fill="#FCFCFF"/>
<path d="M402.473 18.708C402.473 15.068 405.099 12.13 408.765 12.13C412.535 12.13 414.875 15.068 414.875 18.916V19.488H404.943C405.125 21.62 406.685 23.388 409.207 23.388C410.533 23.388 411.989 22.868 412.925 21.906L414.017 23.44C412.769 24.662 411.001 25.312 408.973 25.312C405.229 25.312 402.473 22.66 402.473 18.708ZM408.765 14.054C406.243 14.054 405.047 16.082 404.917 17.798H412.587C412.535 16.134 411.417 14.054 408.765 14.054Z" fill="#FCFCFF"/>
<path d="M401.499 14.496H398.951V25H396.611V14.496H394.531V12.442H396.611V11.6099C396.611 8.90595 398.197 7.39795 400.433 7.39795C401.239 7.39795 401.941 7.55395 402.487 7.86595L401.941 9.60795C401.629 9.42595 401.239 9.32195 400.823 9.32195C399.653 9.32195 398.951 10.1019 398.951 11.6099V12.442H401.499V14.496Z" fill="#FCFCFF"/>
<path d="M391.595 10.3359C390.789 10.3359 390.087 9.68595 390.087 8.85395C390.087 8.02195 390.789 7.34595 391.595 7.34595C392.427 7.34595 393.103 8.02195 393.103 8.85395C393.103 9.68595 392.427 10.3359 391.595 10.3359ZM392.791 24.9999H390.451V12.4419H392.791V24.9999Z" fill="#FCFCFF"/>
<path d="M388.131 25H377.653V7.65796H380.253V22.712H388.131V25Z" fill="#FCFCFF"/>
<path d="M367.369 25.312C365.393 25.312 364.379 24.194 364.379 22.218V14.496H362.299V12.442H364.379V9.01001H366.719V12.442H369.267V14.496H366.719V21.698C366.719 22.582 367.135 23.232 367.941 23.232C368.487 23.232 368.981 22.998 369.215 22.738L369.813 24.506C369.319 24.974 368.591 25.312 367.369 25.312Z" fill="#FCFCFF"/>
<path d="M360.683 25H358.343V16.966C358.343 14.886 357.277 14.21 355.665 14.21C354.209 14.21 352.883 15.094 352.207 16.03V25H349.867V12.442H352.207V14.21C353.039 13.196 354.703 12.13 356.653 12.13C359.305 12.13 360.683 13.534 360.683 16.186V25Z" fill="#FCFCFF"/>
<path d="M335.019 18.708C335.019 15.068 337.645 12.13 341.311 12.13C345.081 12.13 347.421 15.068 347.421 18.916V19.488H337.489C337.671 21.62 339.231 23.388 341.753 23.388C343.079 23.388 344.535 22.868 345.471 21.906L346.563 23.44C345.315 24.662 343.547 25.312 341.519 25.312C337.775 25.312 335.019 22.66 335.019 18.708ZM341.311 14.054C338.789 14.054 337.593 16.082 337.463 17.798H345.133C345.081 16.134 343.963 14.054 341.311 14.054Z" fill="#FCFCFF"/>
<path d="M332.552 25H330.212V16.628C330.212 15.172 329.562 14.21 328.028 14.21C326.754 14.21 325.506 15.094 324.908 16.004V25H322.568V16.628C322.568 15.172 321.944 14.21 320.358 14.21C319.136 14.21 317.914 15.12 317.29 16.03V25H314.95V12.442H317.29V14.21C317.81 13.43 319.474 12.13 321.346 12.13C323.244 12.13 324.362 13.118 324.752 14.47C325.48 13.3 327.144 12.13 328.99 12.13C331.304 12.13 332.552 13.404 332.552 15.926V25Z" fill="#FCFCFF"/>
<path d="M302.765 23.18V29.784H300.425V12.442H302.765V14.236C303.675 12.988 305.183 12.13 306.873 12.13C310.149 12.13 312.463 14.6 312.463 18.708C312.463 22.816 310.149 25.312 306.873 25.312C305.235 25.312 303.779 24.558 302.765 23.18ZM310.019 18.708C310.019 16.108 308.589 14.21 306.249 14.21C304.819 14.21 303.389 15.042 302.765 16.056V21.386C303.389 22.374 304.819 23.232 306.249 23.232C308.589 23.232 310.019 21.334 310.019 18.708Z" fill="#FCFCFF"/>
<path d="M291.59 25.312C287.69 25.312 285.246 22.348 285.246 18.708C285.246 15.094 287.69 12.13 291.59 12.13C295.516 12.13 297.934 15.094 297.934 18.708C297.934 22.348 295.516 25.312 291.59 25.312ZM291.59 23.232C294.112 23.232 295.49 21.1 295.49 18.708C295.49 16.342 294.112 14.21 291.59 14.21C289.094 14.21 287.69 16.342 287.69 18.708C287.69 21.1 289.094 23.232 291.59 23.232Z" fill="#FCFCFF"/>
<path d="M282.777 25H280.437V7.65796H282.777V25Z" fill="#FCFCFF"/>
<path d="M265.588 18.708C265.588 15.068 268.214 12.13 271.88 12.13C275.65 12.13 277.99 15.068 277.99 18.916V19.488H268.058C268.24 21.62 269.8 23.388 272.322 23.388C273.648 23.388 275.104 22.868 276.04 21.906L277.132 23.44C275.884 24.662 274.116 25.312 272.088 25.312C268.344 25.312 265.588 22.66 265.588 18.708ZM271.88 14.054C269.358 14.054 268.162 16.082 268.032 17.798H275.702C275.65 16.134 274.532 14.054 271.88 14.054Z" fill="#FCFCFF"/>
<path d="M259.775 25H257.253L252.079 12.442H254.575L258.501 22.296L262.427 12.442H264.949L259.775 25Z" fill="#FCFCFF"/>
<path d="M239.076 18.708C239.076 15.068 241.702 12.13 245.368 12.13C249.138 12.13 251.478 15.068 251.478 18.916V19.488H241.546C241.728 21.62 243.288 23.388 245.81 23.388C247.136 23.388 248.592 22.868 249.528 21.906L250.62 23.44C249.372 24.662 247.604 25.312 245.576 25.312C241.832 25.312 239.076 22.66 239.076 18.708ZM245.368 14.054C242.846 14.054 241.65 16.082 241.52 17.798H249.19C249.138 16.134 248.02 14.054 245.368 14.054Z" fill="#FCFCFF"/>
<path d="M228.244 25H222.056V7.65796H228.244C233.652 7.65796 237.24 11.35 237.24 16.342C237.24 21.36 233.652 25 228.244 25ZM224.656 9.94596V22.712H228.244C232.248 22.712 234.562 19.852 234.562 16.342C234.562 12.78 232.326 9.94596 228.244 9.94596H224.656Z" fill="#FCFCFF"/>
<path d="M200.932 18.708C200.932 15.068 203.558 12.13 207.224 12.13C210.994 12.13 213.334 15.068 213.334 18.916V19.488H203.402C203.584 21.62 205.144 23.388 207.666 23.388C208.992 23.388 210.448 22.868 211.384 21.906L212.476 23.44C211.228 24.662 209.46 25.312 207.432 25.312C203.688 25.312 200.932 22.66 200.932 18.708ZM207.224 14.054C204.702 14.054 203.506 16.082 203.376 17.798H211.046C210.994 16.134 209.876 14.054 207.224 14.054Z" fill="#FCFCFF"/>
<path d="M195.746 25H193.406V12.442H195.746V14.366C196.708 13.118 198.19 12.156 199.854 12.156V14.522C199.62 14.47 199.36 14.444 199.048 14.444C197.878 14.444 196.292 15.328 195.746 16.264V25Z" fill="#FCFCFF"/>
<path d="M190.137 25H187.797V23.622C186.809 24.714 185.379 25.312 183.689 25.312C181.609 25.312 179.321 23.908 179.321 21.152C179.321 18.292 181.583 17.044 183.689 17.044C185.379 17.044 186.835 17.59 187.797 18.708V16.628C187.797 15.068 186.523 14.132 184.729 14.132C183.299 14.132 182.077 14.678 180.959 15.796L179.945 14.184C181.349 12.806 183.065 12.13 185.093 12.13C187.823 12.13 190.137 13.326 190.137 16.524V25ZM187.797 22.244V20.112C187.095 19.176 185.873 18.682 184.573 18.682C182.883 18.682 181.687 19.696 181.687 21.178C181.687 22.66 182.883 23.674 184.573 23.674C185.873 23.674 187.095 23.18 187.797 22.244Z" fill="#FCFCFF"/>
<path d="M174.493 25H172.075L168.981 15.354L165.887 25H163.469L159.517 12.442H161.961L164.821 22.01L167.967 12.442H169.995L173.141 22.01L176.001 12.442H178.445L174.493 25Z" fill="#FCFCFF"/>
<path d="M157.172 25.312C155.196 25.312 154.182 24.194 154.182 22.218V14.496H152.102V12.442H154.182V9.01001H156.522V12.442H159.07V14.496H156.522V21.698C156.522 22.582 156.938 23.232 157.744 23.232C158.29 23.232 158.784 22.998 159.018 22.738L159.616 24.506C159.122 24.974 158.394 25.312 157.172 25.312Z" fill="#FCFCFF"/>
<path d="M151.081 14.496H148.533V25H146.193V14.496H144.113V12.442H146.193V11.6099C146.193 8.90595 147.779 7.39795 150.015 7.39795C150.821 7.39795 151.523 7.55395 152.069 7.86595L151.523 9.60795C151.211 9.42595 150.821 9.32195 150.405 9.32195C149.235 9.32195 148.533 10.1019 148.533 11.6099V12.442H151.081V14.496Z" fill="#FCFCFF"/>
<path d="M136.786 25.312C132.886 25.312 130.442 22.348 130.442 18.708C130.442 15.094 132.886 12.13 136.786 12.13C140.712 12.13 143.13 15.094 143.13 18.708C143.13 22.348 140.712 25.312 136.786 25.312ZM136.786 23.232C139.308 23.232 140.686 21.1 140.686 18.708C140.686 16.342 139.308 14.21 136.786 14.21C134.29 14.21 132.886 16.342 132.886 18.708C132.886 21.1 134.29 23.232 136.786 23.232Z" fill="#FCFCFF"/>
<path d="M115.352 22.556L116.834 20.554C118.004 21.854 119.876 22.998 122.294 22.998C125.102 22.998 126.09 21.568 126.09 20.32C126.09 18.5 124.114 17.9799 121.904 17.4079C119.122 16.6799 115.898 15.874 115.898 12.3379C115.898 9.47795 118.42 7.39795 122.034 7.39795C124.712 7.39795 126.818 8.25595 128.352 9.81595L126.844 11.7399C125.518 10.336 123.698 9.71195 121.826 9.71195C119.902 9.71195 118.576 10.7 118.576 12.156C118.576 13.716 120.448 14.21 122.606 14.7559C125.44 15.51 128.742 16.3939 128.742 20.0859C128.742 22.79 126.87 25.312 122.19 25.312C119.096 25.312 116.834 24.194 115.352 22.556Z" fill="#FCFCFF"/>
<path d="M96.9058 23.362L98.3358 21.048C99.2458 21.906 101.118 22.764 102.678 22.764C104.108 22.764 104.784 22.27 104.784 21.49C104.784 20.606 103.692 20.294 102.262 20.008C100.104 19.592 97.3218 19.072 97.3218 16.082C97.3218 13.976 99.1678 12.13 102.47 12.13C104.602 12.13 106.292 12.858 107.514 13.846L106.214 16.108C105.46 15.302 104.03 14.652 102.496 14.652C101.3 14.652 100.52 15.094 100.52 15.822C100.52 16.602 101.508 16.888 102.912 17.174C105.07 17.59 107.956 18.162 107.956 21.282C107.956 23.596 106.006 25.312 102.522 25.312C100.338 25.312 98.2318 24.584 96.9058 23.362Z" fill="#FCFCFF"/>
<path d="M94.022 7.2199C94.0102 7.10216 94.1027 7 94.221 7H96.779C96.8973 7 96.9898 7.10216 96.978 7.2199L96.518 11.8199C96.5078 11.9221 96.4218 12 96.319 12H94.681C94.5782 12 94.4922 11.9221 94.482 11.8199L94.022 7.2199Z" fill="#FCFCFF"/>
<defs>
<clipPath id="clip0_7796_10423">
<rect width="92" height="32" fill="white"/>
</clipPath>
</defs>
</svg>
